<?xml version="1.0" standalone="no"?>
<!DOCTYPE svg PUBLIC "-//W3C//DTD SVG 20010904//EN"
 "http://www.w3.org/TR/2001/REC-SVG-20010904/DTD/svg10.dtd">
<svg version="1.0" xmlns="http://www.w3.org/2000/svg"
 width="260.000000pt" height="260.000000pt" viewBox="0 0 260.000000 260.000000"
 preserveAspectRatio="xMidYMid meet">
<metadata>
Created by potrace 1.14, written by Peter Selinger 2001-2017
</metadata>
<g transform="translate(0.000000,260.000000) scale(0.100000,-0.100000)"
fill="#000000" stroke="none">
<path d="M1281 2291 c-6 -10 -8 -21 -5 -24 4 -3 -2 -6 -12 -5 -11 0 -28 -3
-38 -7 -15 -7 -17 -5 -11 6 8 12 6 12 -8 0 -9 -7 -15 -17 -12 -21 2 -4 -6 -13
-19 -20 -14 -7 -27 -21 -29 -32 -3 -10 -11 -17 -19 -16 -7 2 -12 -3 -11 -9 2
-7 -1 -13 -7 -13 -5 0 -9 -10 -8 -22 1 -37 -1 -48 -13 -48 -5 0 -7 6 -3 13 5
9 4 9 -5 1 -6 -6 -13 -19 -15 -30 -2 -10 -5 -23 -6 -29 -1 -5 -1 -12 0 -15 1
-3 3 -13 5 -23 7 -36 15 -49 29 -44 10 4 13 -3 12 -30 -1 -28 3 -37 21 -44 13
-5 23 -11 23 -14 0 -4 -6 -3 -12 0 -7 4 -5 0 4 -8 10 -8 15 -17 11 -20 -3 -4
4 -5 15 -2 16 3 19 0 15 -12 -4 -11 -2 -14 5 -9 8 5 10 2 6 -8 -4 -12 0 -16
15 -16 14 0 25 -9 31 -25 5 -14 15 -24 22 -23 7 2 12 -6 12 -17 0 -11 4 -23 8
-26 4 -3 2 -13 -5 -23 -13 -17 -15 -16 -47 13 -20 18 -38 27 -44 22 -6 -5 -21
-7 -32 -5 -26 4 -72 -31 -52 -40 7 -3 3 -4 -9 -2 -21 4 -28 -7 -24 -36 0 -4
-8 -5 -19 -3 -12 2 -18 0 -15 -6 4 -5 1 -9 -5 -9 -6 0 -9 -4 -6 -9 6 -9 -22
-26 -38 -22 -5 1 -6 -5 -3 -13 3 -8 3 -17 -1 -20 -8 -9 -10 -46 -2 -46 3 0 6
-9 6 -19 0 -11 -5 -19 -11 -18 -5 1 -9 -4 -7 -12 3 -12 1 -12 -15 -1 -10 8
-15 11 -11 6 4 -5 3 -17 -3 -27 -7 -14 -6 -19 3 -19 8 0 9 -3 3 -8 -12 -8 -13
-22 -2 -39 5 -8 4 -13 -2 -13 -12 0 -11 -22 2 -31 4 -3 0 -15 -10 -25 -10 -11
-14 -13 -8 -4 7 11 4 10 -11 -3 -16 -13 -21 -29 -21 -62 0 -24 4 -42 8 -39 5
3 6 -2 3 -10 -3 -9 -10 -13 -15 -10 -5 3 -9 -2 -9 -10 0 -10 -6 -13 -17 -9
-13 5 -15 2 -11 -15 4 -12 2 -25 -4 -28 -6 -4 -5 -10 3 -15 11 -7 11 -9 1 -9
-7 0 -10 -5 -6 -11 4 -8 0 -9 -15 -4 -15 5 -19 3 -15 -8 2 -7 -3 -20 -13 -28
-17 -13 -17 -13 -3 6 14 20 14 20 -7 1 -13 -10 -20 -22 -18 -27 3 -4 -8 -14
-25 -22 -18 -9 -30 -11 -30 -5 0 6 -6 6 -15 -2 -11 -9 -15 -9 -15 -1 0 9 -5 9
-20 1 -15 -8 -20 -8 -20 2 0 9 -3 9 -10 -2 -6 -9 -10 -10 -10 -3 0 13 -38 12
-59 -1 -8 -5 -16 -3 -21 5 -7 10 -11 10 -24 0 -10 -8 -16 -9 -16 -3 0 12 -38
10 -58 -2 -7 -4 -12 -2 -12 5 0 9 -3 9 -14 0 -11 -9 -15 -9 -18 1 -4 10 -8 10
-21 -1 -11 -9 -17 -10 -17 -2 0 6 -5 11 -11 11 -6 0 -9 -7 -5 -15 3 -8 0 -14
-7 -12 -7 1 -11 -4 -10 -10 3 -12 -9 -17 -30 -14 -4 0 -7 -6 -7 -14 0 -8 -5
-15 -11 -15 -5 0 -7 -4 -4 -10 3 -5 -3 -10 -13 -10 -17 0 -19 -6 -17 -42 2
-24 4 -45 4 -47 1 -2 9 3 18 10 12 10 14 10 9 1 -4 -7 -1 -15 8 -18 9 -3 13
-10 10 -15 -3 -5 2 -9 11 -9 9 0 19 -9 22 -20 3 -11 10 -20 15 -20 5 0 6 -6 2
-12 -5 -9 -2 -9 9 1 15 12 17 11 17 -7 0 -12 5 -24 12 -28 7 -5 8 -3 3 6 -5 9
-4 11 3 6 7 -4 12 -14 12 -22 0 -8 4 -13 9 -10 5 3 11 -4 14 -16 5 -16 9 -19
19 -11 16 13 62 -2 53 -17 -3 -5 -1 -10 5 -10 6 0 8 -5 5 -10 -8 -13 18 -8 27
5 5 7 8 6 8 0 0 -6 9 -11 20 -12 13 -1 18 2 13 10 -4 7 -1 7 10 -1 9 -8 20
-11 26 -8 5 3 15 -7 22 -23 7 -16 17 -27 22 -24 4 3 47 6 94 7 81 2 85 1 94
-22 6 -15 15 -22 24 -18 8 3 15 0 15 -7 0 -8 4 -6 10 3 5 8 10 11 10 5 0 -10
86 -12 97 -2 3 4 14 2 24 -4 11 -6 19 -6 19 0 0 5 14 6 35 1 22 -5 35 -4 35 2
0 6 8 4 17 -3 12 -10 15 -10 9 -1 -4 7 -1 19 8 27 18 19 176 28 176 11 0 -7 3
-8 8 -1 10 14 64 17 56 3 -4 -6 2 -6 15 1 16 9 21 9 21 -1 0 -8 3 -9 8 -3 10
14 52 14 52 1 0 -6 4 -5 9 2 7 11 11 11 22 -2 34 -40 43 -48 46 -39 2 6 19 7
43 3 22 -4 40 -4 40 0 0 4 16 4 35 0 24 -5 35 -4 35 4 0 6 5 4 10 -4 8 -12 10
-12 10 -1 0 11 3 11 15 1 8 -7 15 -8 15 -3 0 5 13 8 29 5 22 -3 29 1 34 18 3
12 10 19 16 15 6 -3 11 -1 11 4 0 13 22 10 32 -4 5 -7 8 -6 8 1 0 6 14 9 33 7
17 -2 39 -4 47 -3 8 0 25 0 38 0 12 0 22 5 22 11 0 5 6 7 13 3 8 -5 8 -2 -2 9
-7 9 -11 18 -7 18 3 1 9 2 14 3 4 1 12 5 19 9 6 4 14 3 17 -2 7 -11 55 -11 62
0 3 5 10 7 15 4 5 -3 6 0 3 8 -3 8 0 18 7 23 8 5 10 3 4 -7 -5 -8 2 -5 15 6
13 11 20 14 16 7 -5 -8 0 -11 16 -9 13 2 23 10 23 18 1 8 6 13 13 11 7 -1 11
1 11 5 -3 20 2 26 11 13 8 -13 10 -12 11 5 1 11 1 23 0 28 0 4 3 8 9 8 5 1 16
2 23 3 6 1 11 9 11 19 -2 15 8 21 29 18 4 0 7 6 7 14 0 8 5 15 11 15 5 0 7 5
3 12 -5 7 -1 9 13 6 16 -4 20 0 22 34 2 37 -19 75 -33 61 -3 -4 -6 -1 -6 6 0
14 -25 42 -37 42 -4 0 -7 7 -7 14 1 8 -2 13 -6 10 -5 -3 -10 1 -13 7 -3 10 -7
10 -20 -1 -12 -9 -17 -10 -17 -2 0 9 -5 9 -20 1 -11 -6 -20 -7 -20 -3 0 4 -15
8 -34 8 -19 0 -32 -3 -29 -7 2 -5 -1 -8 -6 -8 -6 0 -11 3 -11 8 0 4 -15 7 -34
7 -19 0 -32 -3 -29 -7 2 -5 -1 -8 -6 -8 -6 0 -11 3 -11 8 0 4 -15 7 -34 7 -19
0 -32 -3 -29 -7 2 -5 -1 -8 -6 -8 -6 0 -11 4 -11 9 0 7 -24 8 -55 1 -21 -5
-36 0 -30 10 3 6 1 10 -4 10 -6 0 -11 7 -11 16 0 8 -5 12 -10 9 -6 -3 -10 1
-10 10 0 9 -4 13 -10 10 -5 -3 -10 1 -10 10 0 9 -4 14 -9 11 -5 -3 -15 2 -22
11 -12 14 -12 16 1 8 13 -8 13 -6 2 8 -8 9 -11 20 -8 26 8 12 -22 43 -34 36
-12 -7 -17 25 -10 60 4 17 3 39 -1 50 -4 11 -8 16 -8 11 -1 -6 -8 -1 -17 10
-8 10 -12 13 -8 5 4 -9 3 -12 -3 -8 -12 7 -11 56 1 75 4 7 2 12 -3 12 -6 0
-11 5 -11 11 0 5 6 7 13 3 9 -6 9 -4 -1 8 -9 11 -9 17 -2 20 7 2 -2 17 -18 34
-23 25 -27 35 -19 49 7 12 6 16 -1 11 -8 -4 -10 5 -7 28 4 28 1 36 -15 41 -11
4 -20 11 -20 16 0 6 -5 7 -11 4 -6 -4 -9 0 -7 11 2 10 -1 19 -7 19 -18 1 -78
63 -71 73 4 6 -7 9 -26 8 -18 -1 -41 2 -52 7 -13 6 -16 6 -11 -3 4 -7 1 -10
-11 -8 -11 2 -18 -2 -17 -9 1 -6 -5 -17 -14 -25 -14 -11 -16 -11 -9 2 4 8 0 6
-8 -4 -12 -15 -16 -16 -17 -5 0 8 -2 26 -4 41 -2 17 2 29 11 32 9 3 12 10 9
16 -3 6 1 7 9 4 10 -4 16 -1 16 8 0 8 13 25 30 38 16 12 27 26 25 30 -3 4 3 7
13 6 9 0 16 5 14 12 -1 6 3 12 9 12 5 0 7 5 3 12 -5 7 -2 9 9 5 19 -7 44 18
27 28 -5 3 -10 11 -10 16 0 6 6 7 13 3 9 -6 9 -5 0 8 -14 16 -8 29 10 22 7 -2
18 5 25 16 10 16 10 20 0 20 -10 0 -10 2 1 9 9 6 10 11 2 15 -8 5 -8 13 -1 27
12 21 0 39 -30 51 -12 4 -15 18 -14 53 1 27 -1 44 -5 39 -13 -18 -29 -13 -35
13 -4 14 -10 23 -13 20 -7 -8 -27 13 -37 38 -5 13 -9 16 -14 8 -5 -7 -13 -9
-21 -3 -8 4 -20 6 -28 3 -8 -3 -13 3 -13 17 0 11 -4 18 -10 15 -5 -3 -10 0
-10 7 0 10 -2 10 -9 -1 -7 -11 -9 -11 -14 0 -3 11 -7 11 -17 2 -8 -8 -20 -9
-36 -3 -19 7 -26 5 -33 -9z m14 -121 c-3 -5 -1 -10 4 -10 6 0 11 4 11 9 0 12
73 8 88 -6 6 -6 12 -17 12 -23 0 -7 7 -9 16 -6 8 3 12 2 9 -4 -3 -6 1 -13 10
-16 9 -4 14 -13 11 -21 -3 -8 -1 -11 4 -8 6 3 10 1 10 -4 0 -6 5 -11 11 -11 5
0 7 5 3 12 -4 6 -3 8 3 5 10 -6 8 -100 -2 -117 -4 -6 -11 -8 -16 -5 -5 4 -9 0
-9 -8 0 -17 -34 -49 -43 -40 -4 3 -7 -1 -7 -10 0 -10 -4 -17 -10 -17 -5 0 -20
-16 -32 -35 -23 -34 -42 -48 -32 -21 3 7 -2 16 -11 20 -9 3 -13 10 -10 16 4 6
-1 7 -12 3 -10 -3 -15 -3 -11 1 8 9 -74 96 -90 96 -7 0 -12 5 -12 11 0 5 6 7
13 3 9 -6 9 -4 1 7 -7 8 -10 26 -8 42 1 16 -1 25 -7 21 -6 -3 -5 3 2 14 7 12
17 18 21 16 5 -3 11 2 14 10 3 9 10 13 15 10 5 -3 6 3 2 12 -4 12 -2 15 8 12
8 -3 19 6 26 24 7 15 15 28 18 28 3 0 3 -4 0 -10z m-110 -598 c12 -8 15 -72 3
-72 -4 0 -11 0 -15 1 -10 1 -25 -30 -18 -41 3 -6 2 -10 -3 -10 -6 0 -8 -8 -5
-19 3 -10 -1 -22 -8 -26 -8 -6 -10 -4 -4 6 4 8 -2 4 -14 -8 -22 -23 -28 -39
-11 -28 6 4 7 -2 1 -17 -5 -15 -5 -31 0 -41 7 -12 6 -17 -3 -17 -10 0 -10 -2
1 -9 9 -6 10 -11 3 -15 -6 -4 -9 -13 -6 -20 3 -8 0 -17 -7 -22 -8 -5 -10 -3
-4 7 7 11 6 12 -7 2 -8 -7 -17 -11 -19 -8 -3 2 -4 -21 -2 -51 1 -30 -2 -52 -6
-50 -4 3 -8 -1 -8 -9 0 -8 4 -12 9 -9 10 6 5 -47 -7 -65 -5 -10 -4 -12 4 -7 8
5 10 -1 6 -23 -4 -23 -2 -31 10 -31 8 0 15 -5 15 -11 0 -5 6 -7 13 -3 6 4 9 4
5 -1 -4 -4 -2 -15 5 -23 9 -13 9 -14 0 -8 -16 9 -16 1 -2 -26 8 -15 8 -19 0
-14 -15 10 -14 -7 2 -23 7 -8 7 -11 1 -8 -7 4 -14 -2 -17 -14 -4 -14 -10 -18
-19 -13 -7 5 -17 9 -21 9 -4 0 -18 10 -31 22 -16 15 -31 21 -49 18 -19 -4 -27
0 -32 15 -3 11 -11 20 -16 20 -6 0 -18 7 -27 16 -14 15 -14 17 1 26 10 5 26
19 37 30 11 12 20 18 20 12 1 -16 21 25 26 52 3 17 1 23 -7 19 -8 -5 -7 -1 1
15 10 18 9 24 -1 31 -10 6 -11 9 -1 9 31 0 56 21 38 32 -8 6 -8 8 1 8 15 0 13
21 -2 32 -6 5 -6 8 1 8 6 0 10 11 9 25 -2 14 1 26 6 26 5 1 15 2 22 3 6 1 11
10 9 20 -2 12 1 16 9 10 8 -5 10 -3 4 7 -5 7 -10 37 -10 66 -2 43 2 56 21 72
12 11 24 18 26 16 2 -3 2 11 0 30 -4 34 3 41 33 35 6 -1 7 2 3 6 -4 4 0 13 10
21 9 8 11 11 3 7 -9 -5 -12 -3 -7 4 8 14 17 15 31 4z m185 -35 c0 -4 -6 -5
-12 -1 -10 6 -10 4 0 -7 6 -7 12 -22 12 -33 0 -17 2 -18 10 -6 8 13 10 12 10
-3 0 -10 5 -15 10 -12 6 4 10 3 9 -2 -4 -23 2 -73 9 -72 22 4 34 -3 28 -16 -3
-8 0 -15 7 -15 7 0 8 -3 2 -8 -15 -11 -12 -69 5 -84 12 -11 12 -10 0 7 -12 18
-11 18 9 -2 19 -16 23 -31 23 -67 -1 -26 -4 -51 -7 -56 -4 -6 -3 -10 2 -10 9
0 8 -94 -2 -109 -3 -6 -2 -11 3 -11 5 0 7 -11 4 -25 -2 -14 -8 -22 -13 -19 -5
3 -9 0 -9 -6 0 -6 -4 -9 -9 -6 -5 3 -11 -1 -15 -9 -3 -8 0 -15 7 -16 7 0 7 -2
2 -5 -6 -2 -9 -22 -7 -44 3 -29 0 -40 -9 -40 -16 0 -50 -35 -68 -68 -7 -12
-16 -20 -22 -17 -5 4 -9 0 -9 -7 0 -7 -8 -1 -17 12 -9 14 -25 32 -35 41 -10 9
-18 21 -18 27 0 7 -7 9 -17 5 -11 -4 -14 -3 -9 5 4 7 3 12 -1 12 -5 0 -9 9
-10 20 -1 11 2 18 6 16 9 -6 7 31 -2 40 -4 4 -2 13 3 19 8 9 3 12 -17 11 -18
0 -27 4 -25 13 1 7 -3 19 -9 27 -9 11 -8 14 7 14 11 0 15 3 9 8 -12 8 -14 66
-3 78 4 4 4 12 0 18 -3 6 -8 28 -9 49 -1 26 2 35 10 30 9 -5 9 -3 2 8 -14 19
-12 55 3 51 7 -1 15 5 18 13 3 8 9 13 13 11 6 -4 6 41 0 54 -12 27 12 67 32
54 7 -4 9 -3 5 4 -3 6 -2 13 4 17 6 4 7 13 2 23 -6 12 -3 22 10 35 10 9 18 14
18 11 0 -3 5 -2 11 2 8 4 7 9 -2 14 -10 7 -10 12 -1 23 7 7 9 17 5 21 -4 4 -1
11 7 16 15 9 40 -12 40 -33z m164 22 c-3 -5 0 -9 6 -9 6 0 8 -5 4 -12 -5 -8
-2 -9 9 -5 18 7 19 6 21 -32 0 -14 11 -35 24 -48 13 -13 20 -28 17 -33 -3 -6
-1 -10 6 -10 9 0 9 -3 0 -14 -9 -11 -9 -16 0 -21 8 -6 7 -10 -2 -16 -9 -6 -10
-9 -2 -9 8 0 9 -9 3 -30 -5 -19 -5 -28 1 -25 5 4 9 -1 9 -10 0 -9 4 -14 9 -11
12 8 27 -14 29 -42 0 -15 -3 -20 -11 -15 -9 5 -9 3 -1 -8 5 -8 9 -24 8 -36 -1
-16 4 -23 17 -23 24 0 35 -20 18 -31 -8 -5 -9 -9 -3 -9 9 0 12 -51 5 -67 -4
-9 2 -18 11 -15 5 1 22 -11 38 -28 15 -16 34 -30 41 -30 8 0 6 -7 -6 -20 -10
-11 -23 -17 -29 -13 -6 3 -8 3 -4 -2 4 -4 0 -14 -10 -22 -9 -8 -11 -11 -3 -7
9 4 12 3 8 -3 -4 -6 -20 -9 -37 -8 -17 1 -33 -1 -36 -6 -3 -5 -9 -7 -14 -4 -4
3 -7 -3 -6 -13 1 -13 -7 -17 -32 -18 -18 0 -38 6 -44 13 -8 10 -7 13 3 13 11
0 11 2 -1 10 -13 9 -13 10 0 10 9 0 11 3 5 8 -15 11 -17 32 -5 47 8 10 7 15
-2 19 -7 3 -4 4 7 1 11 -2 27 0 35 6 12 9 11 10 -4 5 -19 -7 -19 -6 -3 12 20
22 22 36 5 26 -9 -5 -9 -2 1 9 8 11 9 17 2 17 -7 0 -8 8 -1 25 7 18 6 25 -2
25 -6 0 -3 9 7 20 16 18 16 20 1 26 -13 5 -14 9 -5 20 9 11 9 14 0 14 -9 0 -9
5 -1 20 7 14 7 20 0 20 -5 0 -19 9 -31 21 -16 16 -18 23 -8 35 6 8 7 14 2 14
-5 0 -8 25 -7 55 1 30 -3 55 -8 55 -5 0 -7 4 -4 9 4 5 -3 7 -14 4 -12 -3 -20
0 -20 6 0 7 5 9 13 5 8 -5 8 -2 -2 9 -11 14 -11 20 0 34 10 11 10 14 2 9 -8
-4 -13 -1 -13 9 0 9 -4 13 -10 10 -5 -3 -10 -1 -10 6 0 8 -4 8 -12 1 -10 -8
-13 -3 -13 19 0 16 3 29 8 29 4 0 6 3 6 8 -3 16 2 20 21 15 11 -3 17 -9 14
-14z m-1003 -675 c7 -4 10 -3 6 3 -4 6 6 10 23 9 28 -1 34 -6 28 -22 -2 -3 13
-14 32 -25 19 -10 28 -18 20 -19 -33 -1 26 -24 65 -24 39 -1 65 12 65 33 0 24
38 10 45 -16 4 -19 9 -23 15 -14 6 10 10 9 19 -5 6 -11 11 -13 11 -6 0 16 18
15 36 -3 12 -12 12 -15 2 -15 -10 0 -10 -3 2 -9 8 -6 18 -7 23 -4 5 3 13 -1
18 -8 6 -10 9 -11 9 -1 0 6 5 12 10 12 6 0 10 -7 10 -16 0 -8 4 -13 9 -10 5 3
11 -4 15 -17 5 -18 8 -20 16 -7 9 13 11 13 20 0 7 -11 10 -11 10 -2 0 8 9 4
24 -10 13 -13 21 -27 18 -32 -3 -5 1 -5 9 0 20 12 39 14 39 3 0 -6 5 -7 10 -4
6 3 10 -3 10 -14 0 -11 -4 -23 -10 -26 -5 -3 -10 -1 -10 4 0 6 -5 11 -11 11
-5 0 -8 -4 -5 -8 3 -5 -1 -9 -9 -9 -8 0 -15 5 -15 10 0 5 -7 4 -15 -3 -9 -8
-15 -8 -15 -2 0 7 -10 8 -30 2 -16 -5 -32 -5 -34 -1 -4 6 -51 7 -51 1 0 -1
-10 -3 -22 -4 -13 -2 -23 1 -23 5 0 9 -20 6 -37 -4 -7 -5 -13 -4 -13 2 0 5 -9
8 -21 6 -15 -3 -19 0 -15 10 3 9 -1 15 -10 15 -8 0 -13 3 -10 8 2 4 -9 8 -25
8 -16 1 -29 -3 -29 -8 0 -5 -6 -6 -12 -1 -18 11 -32 10 -40 -2 -5 -6 -8 -6 -8
2 0 7 -7 10 -15 7 -8 -4 -15 -1 -15 6 0 18 -28 42 -35 30 -5 -8 -11 -7 -20 0
-8 7 -20 8 -26 4 -8 -4 -9 -3 -5 4 4 7 3 12 -2 12 -5 0 -13 10 -17 23 -4 13
-8 17 -12 10 -2 -7 -9 -13 -14 -13 -6 0 -8 4 -5 9 3 4 -6 6 -21 3 -18 -3 -24
-1 -19 7 4 6 2 11 -4 11 -6 0 -8 5 -5 10 4 6 3 10 -2 9 -22 -4 -33 3 -33 21 0
14 7 20 21 20 15 0 19 5 15 15 -3 8 -1 15 5 15 6 0 8 4 5 9 -6 10 37 6 55 -5z
m1679 -1 c0 -7 5 -13 10 -13 6 0 10 -7 10 -16 0 -14 2 -15 17 -3 10 8 14 9 10
2 -4 -6 -3 -14 3 -18 6 -4 8 -11 4 -16 -3 -5 -10 -7 -15 -4 -5 4 -12 -1 -15
-9 -3 -9 -10 -14 -14 -11 -4 3 -10 -3 -12 -13 -4 -15 -13 -18 -43 -16 -33 3
-37 1 -32 -16 3 -11 1 -18 -4 -14 -5 3 -9 1 -9 -4 0 -4 -16 -8 -35 -7 -19 1
-32 -1 -30 -5 3 -5 -2 -11 -11 -14 -9 -3 -12 -11 -8 -18 5 -8 2 -9 -9 -5 -9 3
-19 1 -23 -5 -4 -7 -9 -6 -14 3 -7 10 -12 10 -23 1 -7 -7 -16 -9 -19 -6 -3 2
-17 7 -30 9 -19 4 -28 -1 -38 -20 -7 -14 -15 -23 -18 -20 -3 2 -13 0 -23 -6
-14 -7 -19 -6 -19 2 0 8 -4 8 -15 -1 -12 -10 -15 -10 -15 1 0 11 -2 11 -10 -1
-8 -12 -10 -12 -10 -1 0 11 -3 11 -15 1 -12 -10 -15 -10 -15 0 0 10 -3 10 -15
0 -12 -10 -15 -10 -15 1 0 11 -2 11 -10 -1 -8 -12 -10 -12 -10 -1 0 11 -3 11
-15 1 -12 -10 -15 -10 -15 0 0 10 -3 10 -15 0 -12 -10 -15 -10 -15 1 0 11 -2
11 -10 -1 -9 -13 -10 -13 -10 0 0 13 -1 13 -10 0 -9 -13 -10 -13 -10 0 0 12
-2 12 -9 1 -6 -10 -10 -10 -16 -1 -6 9 -9 9 -15 0 -5 -8 -9 -8 -13 3 -3 8 1
23 9 34 9 10 13 12 9 6 -3 -7 -1 -13 4 -13 6 0 11 4 11 9 0 5 11 8 24 7 18 -2
23 1 18 12 -4 11 -1 14 12 9 10 -4 15 -3 11 3 -3 6 -4 10 -1 10 2 0 12 3 22 7
13 5 15 3 9 -8 -8 -12 -6 -12 8 0 9 7 17 10 17 5 1 -5 7 2 15 16 7 14 22 25
32 26 47 3 56 4 50 10 -13 13 24 36 49 31 18 -3 28 1 32 12 10 28 28 40 43 30
8 -5 10 -9 4 -9 -5 0 -3 -5 5 -10 13 -9 13 -10 0 -11 -8 -1 1 -5 20 -8 20 -4
38 -2 42 4 5 7 8 6 8 -1 0 -6 13 -9 30 -6 16 2 28 8 25 12 -3 5 -1 11 5 15 6
4 7 11 4 17 -4 6 2 6 15 -1 17 -10 20 -9 15 4 -4 8 -1 15 6 15 6 0 9 4 5 9 -6
11 15 16 72 16 28 0 43 -4 43 -12z"/>
<path d="M1590 1246 c0 -2 7 -7 16 -10 8 -3 12 -2 9 4 -6 10 -25 14 -25 6z"/>
</g>
</svg>
